<svg xmlns="http://www.w3.org/2000/svg" width="490.46" height="92.149" viewBox="0 0 490.46 92.149">
  <g>
    <g>
      <path d="M126.582,25.67a3.6,3.6,0,0,1,3.446,2.558l8.132,26.877a1.067,1.067,0,0,0,2.036,0l8.131-26.877a3.6,3.6,0,0,1,3.446-2.558h9.3L150.562,59.094a11.965,11.965,0,0,1-11.384,8.284h0a11.966,11.966,0,0,1-11.385-8.284L117.278,25.67Z" fill="#fff"/>
      <path d="M169.74,25.67h27.88v6.311a3.6,3.6,0,0,1-3.6,3.6h-17.1V41.7h16.615v5.145a3.6,3.6,0,0,1-3.6,3.6H176.924v6.12h20.7v6.311a3.6,3.6,0,0,1-3.6,3.6H166.14V29.27A3.6,3.6,0,0,1,169.74,25.67Z" fill="#fff"/>
      <path d="M204.9,29.27a3.6,3.6,0,0,1,3.6-3.6h16.8c9.911,0,16.323,6.413,16.323,14.283,0,6.121-3.789,9.91-8.161,12.243l8.453,14.282h-9.613a3.6,3.6,0,0,1-3.093-1.759l-6.24-10.483h-7.287V66.478H204.9Zm20.112,15.055c3.5,0,5.538-2.04,5.538-4.372s-2.04-4.372-5.538-4.372h-9.327v8.744Z" fill="#fff"/>
      <path d="M269.629,24.505c13.408,0,22.735,9.91,22.735,21.569s-9.327,21.57-22.735,21.57-22.736-9.91-22.736-21.57S256.22,24.505,269.629,24.505Zm0,33.229c6.7,0,11.367-4.664,11.367-11.66s-4.664-11.659-11.367-11.659-11.368,4.664-11.368,11.659S262.924,57.734,269.629,57.734Z" fill="#fff"/>
      <path d="M338.319,25.67h6.7V42.576h4.866a3.6,3.6,0,0,0,2.916-1.489l10.087-13.928a3.6,3.6,0,0,1,2.915-1.489h6.032L357.557,45.2l14.865,21.278h-6.287a3.6,3.6,0,0,1-2.949-1.536L353.094,50.525a3.6,3.6,0,0,0-2.95-1.536h-5.121V66.478h-6.7Z" fill="#fff"/>
      <path d="M377.957,25.67h6.7V66.478h-6.7Z" fill="#fff"/>
      <path d="M393.986,25.67h6.7V60.065h20.695v6.413h-23.8a3.6,3.6,0,0,1-3.6-3.6Z" fill="#fff"/>
      <path d="M426.629,25.67h6.7V60.065h20.7v6.413h-23.8a3.6,3.6,0,0,1-3.6-3.6Z" fill="#fff"/>
      <path d="M464.226,54.236s1.166,7.287,10.2,7.287c6.413,0,9.036-2.624,9.036-6.121,0-8.745-24.484-4.081-24.484-18.655,0-6.412,5.829-12.242,15.157-12.242,7.384,0,11.418,3.194,13.592,6.28a3.6,3.6,0,0,1-2.951,5.67h-1.605s-.875-5.829-9.036-5.829c-5.538,0-8.162,2.623-8.162,5.829,0,8.745,24.485,4.373,24.485,18.655,0,6.7-5.83,12.534-16.032,12.534-8.781,0-13.136-4.332-15.259-8.072a3.593,3.593,0,0,1,3.156-5.336Z" fill="#fff"/>
      <path d="M304.135,54.236s1.166,7.287,10.2,7.287c6.412,0,9.035-2.624,9.035-6.121,0-8.745-24.484-4.081-24.484-18.655,0-6.412,5.829-12.242,15.157-12.242,7.384,0,11.418,3.194,13.592,6.28a3.6,3.6,0,0,1-2.951,5.67h-1.6s-.875-5.829-9.036-5.829c-5.538,0-8.162,2.623-8.162,5.829,0,8.745,24.485,4.373,24.485,18.655,0,6.7-5.83,12.534-16.031,12.534-8.782,0-13.136-4.332-15.26-8.072a3.593,3.593,0,0,1,3.156-5.336Z" fill="#fff"/>
    </g>
    <g>
      <path d="M85.53,43.236a4.8,4.8,0,0,1-1.756-6.551l7.5-13.022a10.24,10.24,0,0,0-.215-10.736,10.727,10.727,0,0,0-9.08-4.835H18.5a10.244,10.244,0,0,0-9.19,5.553,10.727,10.727,0,0,0,.352,10.28l2.767,4.794-1.953,1.128A5.836,5.836,0,0,1,2.506,27.71,18.282,18.282,0,0,1,2.557,9.147,18.97,18.97,0,0,1,18.993,0H81.787A18.978,18.978,0,0,1,98.223,9.14a18.272,18.272,0,0,1,.057,18.57L88.385,44.884Z" fill="#f26322"/>
      <path d="M50.361,92.149a18.285,18.285,0,0,1-16-9.236L9.464,39.785l.283-.142a8.01,8.01,0,0,1,3.643-.869h.1a8.477,8.477,0,0,1,7,4.194l3.317,5.479.229.3a4.948,4.948,0,0,0,3.881,2.063A4.747,4.747,0,0,0,32,48.451L48.811,19.424l2.824,1.6A4.794,4.794,0,0,1,53.422,27.6L39,52.5a12.571,12.571,0,0,1-8.284,6.086l-.935.2L41.219,78.6a10.732,10.732,0,0,0,8.728,5.447c.14.005.278.006.416.006a10.273,10.273,0,0,0,8.989-5.19L77,48.4l2.85,1.614a4.8,4.8,0,0,1,1.784,6.58L66.355,82.921A18.281,18.281,0,0,1,50.361,92.149Z" fill="#f26322"/>
      <path d="M48.426,55.651a4.794,4.794,0,0,1-1.8-6.583L63.812,19.424l2.818,1.6A4.8,4.8,0,0,1,68.415,27.6L51.237,57.234Z" fill="#f26322"/>
      <path d="M59.608,62.077a4.8,4.8,0,0,1-1.729-6.544l14.369-24.8,2.812,1.593A4.794,4.794,0,0,1,76.846,38.9L62.454,63.741Z" fill="#f26322"/>
    </g>
  </g>
</svg>
